<svg xmlns="http://www.w3.org/2000/svg" viewBox="0 0 505.46 518.53"><defs><style>.cls-1{fill:#4895ef;}.cls-2{fill:#3f37c9;}.cls-3{fill:#4361ee;}.cls-4{fill:#3a0ca3;}.cls-5{fill:none;}.cls-6{fill:#e76f51;}</style></defs><title>clouds-right</title><g id="Livello_2" data-name="Livello 2"><g id="Livello_1-2" data-name="Livello 1"><path class="cls-1" d="M366.86,468.94l-.38,0c-1.39-.1-2.77-.23-4.16-.4l-1-.13-1.29-.18c-.42-.07-.85-.13-1.27-.21a78.71,78.71,0,0,1-15.58-4.28c-.48-.18-.94-.36-1.41-.56l-1.39-.58c-.93-.4-1.86-.82-2.78-1.26l-.91-.44c-1.07-.53-2.13-1.08-3.18-1.66l-1.35-.76-1.22-.71-.19-.12c-.86-.51-1.72-1.05-2.58-1.61-.43-.28-.87-.57-1.3-.87a81.23,81.23,0,0,1-21.66-21.77,80.48,80.48,0,0,1-98.42,6.14c-37.22-25.3-47.13-76.36-22.12-114,.77-1.14,1.61-2.17,2.42-3.27a94.15,94.15,0,0,1-24.89-12,96.54,96.54,0,0,1-18.72-142.38,94,94,0,0,1,124.4-16.74,96.57,96.57,0,0,1,25.81,133,95.24,95.24,0,0,1-9.41,11.81,82,82,0,0,1,13.1,7.19,79.91,79.91,0,0,1,13.69,11.77,95.51,95.51,0,0,0,39.57,58.42A93.53,93.53,0,0,0,366.48,382V305a80,80,0,0,1,18.65.8h0a80,80,0,0,1,32.34,12.91c1.17.79,2.31,1.61,3.42,2.47h0c27.86,21.08,38.73,57.27,29,89.64a83.37,83.37,0,0,1-16.63,30.24c-.28.32-.56.65-.85,1-.57.64-1.16,1.27-1.74,1.89-.3.31-.59.62-.89.92A80.78,80.78,0,0,1,366.86,468.94Z"/><path class="cls-1" d="M391.22,504.59a81.41,81.41,0,0,1-28.4-33.66c-.14-.28-.26-.56-.39-.84a82.8,82.8,0,0,1,6.66-79.52c.77-1.14,1.62-2.17,2.43-3.27a93.85,93.85,0,0,1-9.09-3.36V307a79.9,79.9,0,0,1,18.65.8h0a80.06,80.06,0,0,1,32.35,12.91c1.16.79,2.3,1.61,3.42,2.47h0c27.85,21.08,38.73,57.27,29,89.64a121.74,121.74,0,0,0,59.6-22.67V515.85a81.38,81.38,0,0,1-15.83-17.4A80.47,80.47,0,0,1,391.22,504.59Z"/><path class="cls-2" d="M188.77,236.61c-1.36-1.7-2.64-3.45-3.86-5.24A80.39,80.39,0,0,1,86.5,237.5c-37.22-25.29-47.13-76.35-22.12-114,.76-1.15,1.61-2.17,2.42-3.27a94.15,94.15,0,0,1-24.89-12C6.25,84-7.93,39.47,4.32,0H185.17a96.73,96.73,0,0,1-7.9,75.78c-.47.83-1,1.67-1.44,2.49-.78,1.3-1.59,2.57-2.43,3.84A93.77,93.77,0,0,1,164,93.93a80.14,80.14,0,0,1,34.76,29,80.44,80.44,0,0,1,96.32-7.53c.7.44,1.4.91,2.1,1.38A81.86,81.86,0,0,1,331.11,167a82.64,82.64,0,0,1-20.91,75.13,80.63,80.63,0,0,1-121.43-5.5Z"/><path class="cls-3" d="M348.94,379a123.68,123.68,0,0,1-22.53-29.44,99,99,0,0,1-114.36-16.85A102,102,0,0,1,194.3,209.78a68.17,68.17,0,0,1-39.78-18.64,70.43,70.43,0,0,1-2.24-98.89,68.14,68.14,0,0,1,18.67-14c1.05-.54,2.11-1,3.17-1.53-.58-.31-1.15-.63-1.73-1a74.16,74.16,0,0,1-15.31-11.13A78.09,78.09,0,0,1,133.78,0H312.61L505.46,186.36V390.18A121.88,121.88,0,0,1,348.94,379Z"/><path class="cls-4" d="M505.46,343.9l-.19-.18a124.13,124.13,0,0,1-22.54-29.44,99.19,99.19,0,0,1-65.86,8.93h0a98.11,98.11,0,0,1-35.77-15.38h0a99.74,99.74,0,0,1-12.7-10.4c-33.81-32.68-39.89-83.6-17.76-122.93A69.59,69.59,0,0,1,326.23,167a66.71,66.71,0,0,1-15.39-11.14A70.5,70.5,0,0,1,308.6,57a68.86,68.86,0,0,1,21.85-15.52,76,76,0,0,1-17-12.08A77.45,77.45,0,0,1,294.36,0h211.1Z"/><path class="cls-5" d="M362.82,470.93l-.39,0c-1.38-.1-2.77-.23-4.15-.4l-1-.13-1.28-.18-1.28-.21a78.71,78.71,0,0,1-15.58-4.28c-.47-.18-.94-.36-1.4-.56l-1.4-.58c-.92-.4-1.85-.82-2.77-1.26l-.91-.44c-1.07-.53-2.14-1.08-3.19-1.66l-1.34-.76-1.23-.71-.18-.12c-.86-.51-1.72-1.05-2.58-1.61-.44-.28-.87-.57-1.31-.87a81.37,81.37,0,0,1-21.66-21.77,80.46,80.46,0,0,1-98.41,6.14c-37.23-25.3-47.13-76.36-22.12-114,.77-1.14,1.61-2.17,2.42-3.27a94.15,94.15,0,0,1-24.89-12,96.54,96.54,0,0,1-25.8-133,94.36,94.36,0,0,1,131.48-26.11,95.8,95.8,0,0,1,16.4,144.83,82.38,82.38,0,0,1,13.1,7.19,80.3,80.3,0,0,1,13.69,11.77,95.51,95.51,0,0,0,39.57,58.42,93.45,93.45,0,0,0,15.8,8.64V307a79.9,79.9,0,0,1,18.65.8h0a80.06,80.06,0,0,1,32.35,12.91c1.16.79,2.3,1.61,3.42,2.47h0c27.85,21.08,38.73,57.27,29,89.64a83.09,83.09,0,0,1-16.64,30.24c-.27.32-.56.65-.85,1q-.86,1-1.74,1.89c-.29.31-.59.62-.89.92A80.74,80.74,0,0,1,362.82,470.93Z"/><polygon class="cls-6" points="398.37 380.48 424.24 378.39 426.56 351.96 429.73 378.14 454.75 380.48 429.98 383.2 426.56 408.99 423.74 383.2 398.37 380.48"/><polygon class="cls-6" points="263.45 403.74 281.22 402.31 282.82 384.15 285 402.14 302.19 403.74 285.17 405.61 282.82 423.34 280.88 405.61 263.45 403.74"/><polygon class="cls-6" points="209.73 33.45 225.32 32.19 226.72 16.26 228.63 32.04 243.71 33.45 228.78 35.09 226.72 50.64 225.02 35.09 209.73 33.45"/></g></g></svg>