<svg xmlns="http://www.w3.org/2000/svg" xmlns:xlink="http://www.w3.org/1999/xlink" viewBox="0 0 518.53 505.46"><defs><style>.cls-1{fill:#4895ef;}.cls-2{fill:#3f37c9;}.cls-3{fill:#4361ee;}.cls-4{fill:#3a0ca3;}.cls-5{fill:none;}.cls-6{fill:url(#Sfumatura_senza_nome_64);}.cls-7{fill:#e76f51;}</style><linearGradient id="Sfumatura_senza_nome_64" x1="629.06" y1="1227.48" x2="629.06" y2="1006.17" gradientTransform="translate(-160.72 -896.97) rotate(10.02)" gradientUnits="userSpaceOnUse"><stop offset="0.3" stop-color="#4cc9f0"/><stop offset="0.75" stop-color="#4895ef"/></linearGradient></defs><title>clouds-left</title><g id="Livello_2" data-name="Livello 2"><g id="Livello_1-2" data-name="Livello 1"><path class="cls-1" d="M468.94,138.6l0,.38c-.1,1.38-.23,2.77-.4,4.15,0,.33-.08.65-.13,1l-.18,1.29c-.07.42-.13.85-.21,1.27a78.71,78.71,0,0,1-4.28,15.58c-.18.47-.36.94-.56,1.4s-.38.93-.58,1.4c-.4.93-.82,1.86-1.26,2.77-.15.3-.29.61-.44.91-.53,1.07-1.08,2.14-1.66,3.19-.25.45-.5.9-.76,1.34s-.47.82-.71,1.23l-.12.19c-.51.86-1.05,1.72-1.61,2.58-.28.43-.57.87-.87,1.3a81.37,81.37,0,0,1-21.77,21.66,80.46,80.46,0,0,1,6.14,98.41c-25.3,37.23-76.36,47.13-114,22.12-1.14-.77-2.17-1.61-3.27-2.42a94,94,0,0,1-12,24.89,96.51,96.51,0,0,1-133,25.8A94.29,94.29,0,0,1,151.1,237.54a95.8,95.8,0,0,1,144.83-16.4,82.29,82.29,0,0,1,7.19-13.09,79.91,79.91,0,0,1,11.77-13.69,95.55,95.55,0,0,0,58.42-39.57A93.53,93.53,0,0,0,382,139H305a79.93,79.93,0,0,1,.8-18.65,0,0,0,0,1,0,0A80.06,80.06,0,0,1,318.75,88c.79-1.16,1.61-2.3,2.47-3.42h0c21.08-27.85,57.27-38.72,89.64-29A83.09,83.09,0,0,1,441.1,72.19c.32.27.65.56,1,.85q1,.85,1.89,1.74l.92.89A80.75,80.75,0,0,1,468.94,138.6Z"/><path class="cls-1" d="M504.59,114.24a81.41,81.41,0,0,1-33.66,28.4l-.84.39a82.7,82.7,0,0,1-79.52-6.67c-1.14-.77-2.17-1.61-3.27-2.42a93.85,93.85,0,0,1-3.36,9.09H307a80,80,0,0,1,.8-18.66,0,0,0,0,1,0,0A80,80,0,0,1,320.74,92c.79-1.17,1.61-2.3,2.47-3.42h0c21.08-27.86,57.27-38.73,89.64-29A121.66,121.66,0,0,0,390.18,0H515.85a81.38,81.38,0,0,1-17.4,15.83A80.46,80.46,0,0,1,504.59,114.24Z"/><path class="cls-2" d="M236.61,316.68c-1.7,1.37-3.45,2.65-5.24,3.87A80.37,80.37,0,0,1,237.5,419c-25.29,37.23-76.35,47.13-114,22.12-1.15-.76-2.17-1.61-3.27-2.42a94.15,94.15,0,0,1-12,24.89C84,499.21,39.47,513.38,0,501.14V320.29a96.69,96.69,0,0,1,75.78,7.9c.83.46,1.67.95,2.49,1.44,1.3.77,2.57,1.58,3.84,2.42a94.68,94.68,0,0,1,11.82,9.42,80.22,80.22,0,0,1,29-34.75,80.44,80.44,0,0,1-7.53-96.32c.44-.7.91-1.4,1.38-2.11A81.84,81.84,0,0,1,167,174.35a82.73,82.73,0,0,1,63.78,11.83,81.7,81.7,0,0,1,11.35,9.08,80.6,80.6,0,0,1-5.5,121.42Z"/><path class="cls-3" d="M379,156.52a123.94,123.94,0,0,1-29.44,22.53A99,99,0,0,1,332.72,293.4a102,102,0,0,1-122.94,17.76,68.17,68.17,0,0,1-18.64,39.78A69.88,69.88,0,0,1,169.83,366a70.58,70.58,0,0,1-77.58-12.81,68.29,68.29,0,0,1-14-18.67q-.81-1.58-1.53-3.18c-.31.59-.63,1.16-1,1.73a74,74,0,0,1-11.13,15.32A78.08,78.08,0,0,1,0,371.67V192.85L186.36,0H390.18A121.88,121.88,0,0,1,379,156.52Z"/><path class="cls-4" d="M343.9,0l-.18.19a124.39,124.39,0,0,1-29.44,22.54,99.19,99.19,0,0,1,8.93,65.86h0a98.07,98.07,0,0,1-15.38,35.76,0,0,0,0,0,0,0,98.37,98.37,0,0,1-10.4,12.7c-32.68,33.82-83.6,39.9-122.93,17.77A69.54,69.54,0,0,1,167,179.22a66.29,66.29,0,0,1-11.14,15.39A70.51,70.51,0,0,1,57,196.86,68.9,68.9,0,0,1,41.44,175a75.81,75.81,0,0,1-12.08,17A77.33,77.33,0,0,1,0,211.09V0Z"/><path class="cls-5" d="M470.93,142.64l0,.39c-.1,1.38-.23,2.76-.4,4.15,0,.32-.08.65-.13,1l-.18,1.28c-.07.43-.13.85-.21,1.28a78.81,78.81,0,0,1-4.28,15.57c-.18.48-.36.94-.56,1.41s-.38.93-.58,1.39c-.4.93-.82,1.86-1.26,2.78-.15.3-.29.6-.44.91-.53,1.07-1.08,2.13-1.66,3.18-.25.46-.5.9-.76,1.35s-.47.82-.71,1.22l-.12.19c-.51.86-1.05,1.72-1.61,2.58-.28.43-.57.87-.87,1.3a81.23,81.23,0,0,1-21.77,21.66,80.48,80.48,0,0,1,6.14,98.42c-25.3,37.22-76.36,47.13-114,22.12-1.14-.77-2.17-1.61-3.27-2.42a94.15,94.15,0,0,1-12,24.89A96.54,96.54,0,0,1,169.83,366a94,94,0,0,1-16.74-124.4,95.8,95.8,0,0,1,144.83-16.4,82,82,0,0,1,7.19-13.1,79.91,79.91,0,0,1,11.77-13.69,95.51,95.51,0,0,0,58.42-39.57,93.83,93.83,0,0,0,8.64-15.8H307a80,80,0,0,1,.8-18.66,0,0,0,0,1,0,0A80,80,0,0,1,320.74,92c.79-1.17,1.61-2.3,2.47-3.42h0c21.08-27.86,57.27-38.73,89.64-29a83.37,83.37,0,0,1,30.24,16.63l1,.85L446,78.82l.92.89A80.78,80.78,0,0,1,470.93,142.64Z"/><path class="cls-6" d="M330.75,323.73C320,383.88,262,424,201.09,413.41c-1.61-.28-3.2-.59-4.78-.93,36.95-16.77,65.24-50.6,72.85-93.17,8.9-49.81-12.94-97.95-52.06-125.4A113,113,0,0,1,240,195.56C300.88,206.18,341.5,263.57,330.75,323.73Z"/><polygon class="cls-7" points="380.48 107.08 378.39 81.22 351.96 78.9 378.14 75.72 380.48 50.71 383.2 75.47 408.99 78.9 383.2 81.72 380.48 107.08"/><polygon class="cls-7" points="403.74 242.01 402.31 224.24 384.15 222.64 402.14 220.46 403.74 203.27 405.61 220.29 423.34 222.64 405.61 224.58 403.74 242.01"/><polygon class="cls-7" points="33.45 295.73 32.19 280.14 16.26 278.74 32.04 276.83 33.45 261.75 35.09 276.68 50.64 278.74 35.09 280.44 33.45 295.73"/></g></g></svg>