<svg xmlns="http://www.w3.org/2000/svg" viewBox="0 0 796.58 708.75"><defs><style>.cls-1{fill:#4cc9f0;}.cls-2{fill:#3f37c9;}.cls-3{fill:#0a85e2;}.cls-4{fill:#e76f51;}.cls-5{fill:#4361ee;}.cls-6{fill:#ff6584;}.cls-7{fill:#3a0ca3;}.cls-8{fill:#fbbebe;}.cls-9{fill:#4895ef;}.cls-10{opacity:0.1;isolation:isolate;}</style></defs><title>explore-sky</title><g id="Livello_2" data-name="Livello 2"><g id="Livello_1-2" data-name="Livello 1"><polygon class="cls-1" points="630.42 331.9 627.87 330.42 629.49 328.09 628.8 327.68 627.18 330.01 624.64 328.53 624.2 329.16 626.74 330.65 625.12 332.98 625.82 333.38 627.43 331.05 629.98 332.53 630.42 331.9"/><path class="cls-2" d="M.05,270.39C-3.29,385.22,163.82,502.45,372.42,502.45s540.77-226.39,383-232.06c-304-10.92-408.16-126.25-377.68-208C432.33-84,6.61,44.28.05,270.39Z"/><polygon class="cls-3" points="277.51 179.44 274.97 177.96 276.59 175.63 275.89 175.22 274.27 177.56 271.73 176.07 271.29 176.71 273.83 178.19 272.21 180.52 272.91 180.92 274.53 178.59 277.07 180.08 277.51 179.44"/><polygon class="cls-1" points="466.63 348.12 464.09 346.63 465.71 344.31 465.01 343.9 463.4 346.23 460.85 344.75 460.41 345.38 462.95 346.87 461.34 349.2 462.03 349.6 463.65 347.27 466.19 348.75 466.63 348.12"/><polygon class="cls-3" points="160.55 327.6 158.01 326.12 159.63 323.79 158.94 323.39 157.32 325.72 154.77 324.23 154.33 324.87 156.88 326.35 155.26 328.68 155.95 329.09 157.57 326.76 160.11 328.24 160.55 327.6"/><polygon class="cls-3" points="389.49 437.01 386.95 435.53 388.57 433.2 387.87 432.8 386.25 435.13 383.71 433.65 383.27 434.28 385.81 435.76 384.19 438.09 384.89 438.5 386.51 436.17 389.05 437.65 389.49 437.01"/><polygon class="cls-3" points="176.73 394.85 174.19 393.36 175.8 391.03 175.11 390.63 173.49 392.96 170.95 391.48 170.51 392.11 173.05 393.6 171.43 395.92 172.13 396.33 173.74 394 176.29 395.48 176.73 394.85"/><polygon class="cls-3" points="124.47 201.1 121.93 199.61 123.55 197.28 122.85 196.88 121.23 199.21 118.69 197.73 118.25 198.36 120.79 199.84 119.17 202.17 119.87 202.58 121.49 200.25 124.03 201.73 124.47 201.1"/><polygon class="cls-4" points="337.23 226.72 333.67 224.64 335.94 221.38 334.97 220.81 332.7 224.07 329.14 222 328.52 222.89 332.08 224.96 329.82 228.22 330.79 228.79 333.06 225.53 336.62 227.6 337.23 226.72"/><ellipse class="cls-3" cx="209.08" cy="266.4" rx="3.73" ry="3.42"/><ellipse class="cls-5" cx="63.5" cy="266.4" rx="3.73" ry="3.42"/><ellipse class="cls-5" cx="317.33" cy="141.03" rx="3.73" ry="3.42"/><ellipse class="cls-5" cx="282.49" cy="349.6" rx="3.73" ry="3.42"/><ellipse class="cls-3" cx="280" cy="277.8" rx="2.49" ry="2.28"/><ellipse class="cls-6" cx="535.06" cy="378.09" rx="2.49" ry="2.28"/><ellipse class="cls-4" cx="154.33" cy="253.86" rx="2.49" ry="2.28"/><ellipse class="cls-4" cx="309.86" cy="69.23" rx="2.49" ry="2.28"/><ellipse class="cls-5" cx="207.83" cy="175.22" rx="2.49" ry="2.28"/><ellipse class="cls-4" cx="238.94" cy="98.86" rx="2.49" ry="2.28"/><ellipse class="cls-1" cx="610.96" cy="304.01" rx="3.73" ry="3.42"/><ellipse class="cls-1" cx="363.36" cy="316.55" rx="3.73" ry="3.42"/><ellipse class="cls-5" cx="299.91" cy="397.47" rx="12.44" ry="11.4"/><ellipse class="cls-1" cx="450.46" cy="273.24" rx="3.73" ry="3.42"/><path class="cls-7" d="M90.77,694.64s-3,12.51-.27,13.05,16,.37,19.3.91,10.06-.37,10.06-2.81-7.07-4.08-7.07-4.08-10.06-5.44-10.33-5.71S90.77,694.64,90.77,694.64Z"/><path class="cls-5" d="M94,605.35s1,11,1,12-5.85,52.33-4.55,62.73-.12,13.72-.12,15.67S100.8,697,100.8,697l11.37-71.83-5.85-21.45Z"/><path class="cls-7" d="M94.58,697.38s-2.72,9.79,0,10.33,16-.62,19.3-.08,10.06.62,10.06-1.82-7.07-4.08-7.07-4.08-10.06-5.44-10.33-5.71S94.58,697.38,94.58,697.38Z"/><path class="cls-5" d="M91.05,592.35s-3.9,9.43.65,14.3,9.75,14.63,9.75,15.28-9.1,65.33-7.8,69.55,1,6.83.65,7.48,3.25,4.22,7.15,4.22,9.75-2.92,10.4-5.52-1-25-.65-29.25,13.32-71.83,11.7-73.46S91.05,592.35,91.05,592.35Z"/><circle class="cls-8" cx="115.75" cy="506.55" r="11.05"/><path class="cls-8" d="M108.92,512.07s2.28,12,.65,13.33,12.35,3.25,12.35,3.25,1.63-15.93,2-17.55S108.92,512.07,108.92,512.07Z"/><path class="cls-9" d="M123.87,527.67s2.1-11.45-13.82-8.2c0,0-14.55,11.92-13.9,23s-5.1,43.09-4.45,45.36-3.9,5.2-2,6.18,37.05,6.82,38,0-.33-24.05.32-27.3,0-30.56-1.95-33.81A17,17,0,0,1,123.87,527.67Z"/><path class="cls-8" d="M117.05,607s-4.88,18.52,1.3,18.52,5.85-19.17,5.85-19.17Z"/><path class="cls-4" d="M120.25,508.39c-.14.93-1.58,1.32-3.69,1.14h0a18.26,18.26,0,0,1-2.66-.46c-1.32-.32-2.06.85-2.54,2.48-.78,2.67-.84,6.59-1.54,7.1C105,521.32,90.72,503.42,98,498.78c2.6-1.65,11.37-7.81,17.43-6.56s3.6,8.76,3.6,8.76.22,1,.48,2.25a34.6,34.6,0,0,1,.72,4.85A3,3,0,0,1,120.25,508.39Z"/><path class="cls-9" d="M121,530.92s-11-.65-12,15.6-.65,31.53-.65,31.86,4.55,31.2,8.78,31.2,7.47-.65,8.45-2.28-2.6-25-2.6-25-1.63-24.71,1-32.51S126.8,531.9,121,530.92Z"/><polyline class="cls-10" points="108.44 550.99 105.24 585.72 115.92 609.76 108.98 585.19 108.44 550.46"/><polygon class="cls-10" points="123.94 554.73 124.75 595.67 121.8 573.43 123.94 554.73"/></g></g></svg>