<svg xmlns="http://www.w3.org/2000/svg" xmlns:xlink="http://www.w3.org/1999/xlink" viewBox="0 0 839.54 460.1"><defs><style>.cls-1{fill:#3a0ca3;}.cls-2{fill:url(#Sfumatura_senza_nome_44);}.cls-3{fill:url(#Sfumatura_senza_nome_45);}.cls-4{fill:#e76f51;}.cls-5{fill:#2f2e41;}.cls-6{fill:#7209b7;}.cls-7{fill:#b5179e;}.cls-8{fill:#f72585;}.cls-9{fill:#4cc9f0;}.cls-10{fill:#ffb8b8;}.cls-11{opacity:0.1;isolation:isolate;}.cls-12{fill:#4361ee;}.cls-13{fill:#4895ef;}.cls-14{fill:#3f3d56;}</style><linearGradient id="Sfumatura_senza_nome_44" x1="599.61" y1="41.56" x2="292.84" y2="572.91" gradientUnits="userSpaceOnUse"><stop offset="0.06" stop-color="#7209b7"/><stop offset="0.61" stop-color="#3a0ca3"/></linearGradient><linearGradient id="Sfumatura_senza_nome_45" x1="436.04" y1="-52.47" x2="266.38" y2="241.4" gradientUnits="userSpaceOnUse"><stop offset="0.06" stop-color="#7209b7"/><stop offset="0.87" stop-color="#3a0ca3"/></linearGradient></defs><title>home-svg</title><g id="Livello_2" data-name="Livello 2"><g id="Livello_1-2" data-name="Livello 1"><ellipse class="cls-1" cx="413.19" cy="433.35" rx="213.18" ry="26.75"/><path class="cls-2" d="M773.8,204.63l-82.41,39,72.93-54.54a411.76,411.76,0,0,0-39.82-52.4L367.09,225.52,689.93,102.37a411.49,411.49,0,0,0-46.88-35.73L98.45,154.36A408.1,408.1,0,0,0,9.06,409.07H828.83A407.87,407.87,0,0,0,773.8,204.63Z"/><path class="cls-3" d="M598.48,41.32A408.09,408.09,0,0,0,419,0C292.33,0,179.13,57.41,104,147.62,232.7,119.41,456.86,70.57,598.48,41.32Z"/><circle class="cls-4" cx="636.96" cy="87.25" r="12.28"/><circle class="cls-4" cx="598.48" cy="107.39" r="8.61"/><circle class="cls-4" cx="186.23" cy="172.29" r="25.72"/><circle class="cls-4" cx="123.46" cy="177.79" r="18.04"/><rect class="cls-5" y="408.25" width="839.54" height="1.65"/><path class="cls-6" d="M744.43,408.25,679,311.12s99,34.57,87.78,97.13Z"/><path class="cls-7" d="M747,408.25l65.39-97.13s-99,34.57-87.79,97.13Z"/><path class="cls-8" d="M469.29,94.42c-17-28.77-50.7-30.11-50.7-30.11s-32.83-4.2-53.88,39.61c-19.63,40.84-46.71,80.27-4.36,89.83L368,169.94l4.74,25.58a163.46,163.46,0,0,0,18.12.31c45.35-1.46,88.54.43,87.15-15.84C476.16,158.35,485.68,122.1,469.29,94.42Z"/><path class="cls-9" d="M357.93,346.34a66.38,66.38,0,0,1-2.17,9.35c-1.07,3-2.71,5.77-3.68,8.8-3.11,9.64,1.19,20.4,8.07,27.85a45.4,45.4,0,0,0,22.16,13.15c6.2,1.56,12.65,1.79,19,2,17.7.61,35.85,1.14,52.62-4.55A91.11,91.11,0,0,0,469.26,396a11.5,11.5,0,0,0,4-3.12c1.28-1.83,1.44-4.19,1.43-6.41,0-7.51-1.56-15-1.2-22.46.2-4.16,1-8.3.6-12.44a23,23,0,0,0-17.54-19.77c-4.76-1-9.69-.46-14.53,0a373.39,373.39,0,0,1-37.83,1.69c-12.91-.09-25.73-2.06-38.57-2.26-3.8-.06-3.72,1.11-4.93,4.78A90.1,90.1,0,0,0,357.93,346.34Z"/><path class="cls-10" d="M394.55,161.08c-.62,3.25-1.29,6.61-3.24,9.28-2.24,3.07-5.9,4.83-8.32,7.76-3.63,4.43-3.84,10.65-3.86,16.38,0,5.27.1,10.89,3,15.27,1.91,2.84,4.81,4.84,7.65,6.75,11,7.43,22.95,15,36.24,15.24,5.51.1,11.42-1.32,15.05-5.47a22.72,22.72,0,0,0,3.64-6.5,86.34,86.34,0,0,0,6.11-26.27c.3-4.24.27-8.61-1.17-12.61-1.61-4.51-4.88-8.21-7-12.48A27.83,27.83,0,0,1,440,152a1.81,1.81,0,0,0-.09-1.19,1.77,1.77,0,0,0-1.44-.58l-26.36-1.9a57.94,57.94,0,0,1-7.32-.83c-1.43-.29-5.18-2.31-6.53-1.77C395.73,146.7,395.07,158.39,394.55,161.08Z"/><path class="cls-11" d="M394.55,161.08c-.62,3.25-1.29,6.61-3.24,9.28-2.24,3.07-5.9,4.83-8.32,7.76-3.63,4.43-3.84,10.65-3.86,16.38,0,5.27.1,10.89,3,15.27,1.91,2.84,4.81,4.84,7.65,6.75,11,7.43,22.95,15,36.24,15.24,5.51.1,11.42-1.32,15.05-5.47a22.72,22.72,0,0,0,3.64-6.5,86.34,86.34,0,0,0,6.11-26.27c.3-4.24.27-8.61-1.17-12.61-1.61-4.51-4.88-8.21-7-12.48A27.83,27.83,0,0,1,440,152a1.81,1.81,0,0,0-.09-1.19,1.77,1.77,0,0,0-1.44-.58l-26.36-1.9a57.94,57.94,0,0,1-7.32-.83c-1.43-.29-5.18-2.31-6.53-1.77C395.73,146.7,395.07,158.39,394.55,161.08Z"/><circle class="cls-10" cx="419.77" cy="125.93" r="38.68"/><path class="cls-12" d="M400,212.58a24,24,0,0,0,6.79,5.43,21.3,21.3,0,0,0,8.49,1.61c7,.2,14.54-1.08,19.39-6.09,6.25-6.47,6-16.89,11-24.43a5.53,5.53,0,0,1,1.57-1.73,5.17,5.17,0,0,1,2.69-.61c6.19-.06,11.58,4,16.45,7.78,2.18,1.71,4.41,3.49,5.79,5.9a20,20,0,0,1,1.95,6c2.42,11.79,3.2,23.84,4,35.85.42,6.63.85,13.27.82,19.92-.1,21.9-5.19,43.43-10.25,64.73-.66,2.75-1.55,5.82-4.05,7.13a9.94,9.94,0,0,1-3.52.86c-14.5,1.71-29,3.41-43.62,3.64q-8.55.12-17.08-.42a9.13,9.13,0,0,1-2.88-.5,8.09,8.09,0,0,1-3.14-2.66c-7.89-10-8.36-23.71-8.31-36.41q.19-46.58,3.33-93.07c.18-2.56.21-5.67-1.63-7.68C391,203.12,395.64,208,400,212.58Z"/><circle class="cls-8" cx="424.46" cy="60.25" r="17.27"/><path class="cls-13" d="M391.79,167.91c-1.31,2.36-10.94,8.24-12.8,10.2-10.39,10.95-29.36,10.54-38.86,22.27-3.34,4.13-5.08,9.31-6.36,14.47C332,222.14,331,230.09,334,237c2.91,6.61,9,11.18,13.2,17.09,4.57,6.49,6.63,14.37,8.6,22.06,1.45,5.68,2.92,11.49,2.35,17.33-.64,6.63-3.85,12.7-5.75,19.09s-2.22,14,2.16,19c3.22,3.69,8.27,5.15,13.1,6a149.47,149.47,0,0,0,18.66,1.62c5.51.24,11.59.29,15.83-3.24,3.35-2.79,4.8-7.32,5-11.67s-.72-8.67-1.28-13c-.59-4.48-.82-9-1-13.51q-1.26-30.36-.34-60.78c.12-4.22.28-8.49-.62-12.61-1.18-5.42-4.11-10.27-6.56-15.25-4.85-9.89-7.15-19.5-6.4-30.49S396.43,159.49,391.79,167.91Z"/><path class="cls-13" d="M446.11,168.73c2,2.05,8.75,2.72,11.28,4a39.73,39.73,0,0,0,7.42,2.57,96.08,96.08,0,0,1,26.06,12,15.71,15.71,0,0,1,4.36,3.76c1.41,2,1.93,4.43,2.41,6.81,1.24,6.14,2.48,12.35,2.2,18.61-.29,6.64-2.29,13.08-4.28,19.42l-7.42,23.71c-5.53,17.7-11.1,35.58-12.66,54.06a127.24,127.24,0,0,0,1.14,30.7,3.66,3.66,0,0,1-.37,3,3,3,0,0,1-1.82.84c-3.58.56-7-1.27-10.29-2.88A113.64,113.64,0,0,0,432.74,335a73,73,0,0,0,9.75-20.11,120.61,120.61,0,0,0,2.95-13.83l3.45-19.95a197.57,197.57,0,0,0,3-22.07,27.6,27.6,0,0,0-.48-8.31,40.77,40.77,0,0,0-3.15-7.5c-5.69-11.83-8.36-25.32-6.12-38.26,1-5.66,2.88-11.32,2.09-17-.76-5.47,0-9.72-1.37-15.13C437.05,150.62,442.36,164.88,446.11,168.73Z"/><path class="cls-13" d="M340,219.08c-2.59,5.38-6.93,10-8.4,15.75a34.46,34.46,0,0,0-.73,8.23c0,4.16-.06,8.41,1.22,12.38.82,2.55,2.16,4.9,3.13,7.4a26.9,26.9,0,0,1,1.75,11c-.26,5.18-2,10.21-2.15,15.39-.22,8.16,3.55,15.83,7.23,23.11a17,17,0,0,1,22.11-9.39,16.45,16.45,0,0,1,2.58,1.31c1-.9,1.08-2.37,1.12-3.7q.41-14.19.78-28.38c.4-14.64.78-29.47-2.59-43.72-1.52-6.43-3.88-12.84-8.22-17.83-2.28-2.62-10-9.55-13.78-6.6-1.68,1.32-1.29,4.92-1.56,6.75A28.54,28.54,0,0,1,340,219.08Z"/><path class="cls-13" d="M500.6,203.58c1.23,3.82,1.3,7.89,1.33,11.9q.07,12.27-.33,24.54c-.14,4.19-.32,8.43-1.59,12.42-.84,2.64-2.13,5.1-3,7.73-2.59,7.86-1.17,16.39-.95,24.67a27.76,27.76,0,0,1-.68,8c-1.37,5.13-5,9.28-7.61,13.93-2.43,4.41-3.9,9.36-6.81,13.48s-7.95,7.38-12.83,6.12c-3.7-1-6.32-4.23-8.14-7.59a37.18,37.18,0,0,1-3.85-24.16c1.82-10,7.72-18.95,9.85-28.94,2.92-13.71-1.52-27.86-1.39-41.88a20.12,20.12,0,0,1,.89-6.49c1.11-3.2,3.51-5.76,5.72-8.33a104.7,104.7,0,0,0,7.7-10.1c1.59-2.36,3.74-8.44,6.55-8.95C491.74,188.77,499,198.73,500.6,203.58Z"/><path class="cls-9" d="M307.47,340.25a37.65,37.65,0,0,0-10.62-1.13,26.5,26.5,0,0,0-25,27.93,24.86,24.86,0,0,0,.4,3.32,44.45,44.45,0,0,0,4.2,11.5c2.82,5.71,6.2,11.42,11.41,15.08a44.75,44.75,0,0,0,10.07,4.79l27.47,10.35c4,1.52,8.08,3.05,12.16,4.46a238.34,238.34,0,0,0,63.52,12.63c6.6.39,13.29.5,19.73-1,1.52-.36,3.15-.89,4-2.19a6.94,6.94,0,0,0,.9-3l1.69-11.83a9.91,9.91,0,0,0-.14-5c-.78-2-2.72-3.24-4.57-4.3-18.06-10.37-39.14-16.09-54.34-30.32-3.57-3.35-6.57-8.67-10.92-10.94-4.93-2.58-10.73-4.06-15.83-6.43C330.49,349,319.54,343,307.47,340.25Z"/><path class="cls-11" d="M334.89,356.2c9.71,3,50.69,24.11,57.72,31.47-.94.34-32.89-17.57-33.85-17.85-8.72-2.62-17.48-5.25-25.75-9.08-1.67-.77-10.82-4.39-10.41-6.49C323.07,351.88,333.17,355.66,334.89,356.2Z"/><path class="cls-10" d="M456,435.31a2.3,2.3,0,0,0,1.54-.45,2.39,2.39,0,0,0,.48-1.77L458,417c-4.63-2.21-9.82-2.92-14.9-3.6l-23.75-3.17c.55.07-3.71,10.23-3.06,11.58,1.15,2.39,9.95,4.51,12.43,5.64C437.32,431.34,446.28,435.65,456,435.31Z"/><path class="cls-10" d="M381.5,416.91c-4.48.72-9.49,1.35-12.39,4.84-3.68,4.42-2.11,11-.36,16.5a7.18,7.18,0,0,0,1.53,3c1.2,1.18,3,1.35,4.72,1.46,4.08.26,8.44.46,12-1.54a52.62,52.62,0,0,0,4.66-3.47,29.64,29.64,0,0,1,8.58-3.92,85.94,85.94,0,0,1,17.22-3.55,27,27,0,0,0,6.79-1.2A7.53,7.53,0,0,0,429,424.4c.82-2.93-.88-5.91-2.51-8.48-2-3.2-4.19-6.57-7.22-8.93-4.43-3.43-6.62-.8-11.07,1.4A93.59,93.59,0,0,1,381.5,416.91Z"/><path class="cls-12" d="M369.78,421l-28.46-8.41c-3.46-1-7-2.06-10.6-2.05s-7.38,1.18-9.72,3.93c-2.21,2.59-2.84,6.13-3.39,9.49l-1.18,7.18c-.6,3.66-1.2,7.38-.66,11s2.41,7.32,5.66,9.09c3.93,2.15,8.76,1.1,13.16.2a142.15,142.15,0,0,1,27-2.89c3.4,0,7,0,10-1.6,3.58-1.89,5.72-5.91,6.09-9.94C378.21,430.85,376.16,422.84,369.78,421Z"/><path class="cls-12" d="M467.19,413.62c3.69-.65,6.95-2.74,10.48-4,5-1.74,10.37-1.74,15.65-1.73,1.93,0,4,0,5.61,1.13,2.32,1.54,2.91,4.64,3.31,7.4l2.38,16.67c.45,3.13.9,6.35.2,9.44s-2.81,6.07-5.87,6.86c-3.73,1-7.37-1.41-10.89-3-8.78-3.9-19-2.9-28.15-5.82-1.7-.54-3.53-1.37-4.22-3a7,7,0,0,1-.33-2.88c.16-5.35-1-12.67.64-17.79C457.45,412.33,463.07,413.62,467.19,413.62Z"/><path class="cls-9" d="M527.43,333.54a49.33,49.33,0,0,1,17.41-1.19c4.66.51,9.46,1.81,12.86,5,4.13,3.92,5.46,10,5.57,15.68a49,49,0,0,1-10.65,31.3,28.49,28.49,0,0,1-6.09,5.87,39.55,39.55,0,0,1-7.92,3.81L477.1,418.3c-16.18,6.39-32.42,12.79-49.3,17a3.85,3.85,0,0,1-5.13-1.79.36.36,0,0,0,0-.09,127.46,127.46,0,0,1-13.48-24.66,1.67,1.67,0,0,1,.24-2.34,1.89,1.89,0,0,1,.5-.28l43.5-25a44.18,44.18,0,0,0,8.86-6.11,21.83,21.83,0,0,0,4.54-6.32c.9-1.89,1-6.33,2.14-7.73s5-1.47,6.77-2a61.27,61.27,0,0,0,7.37-2.79c9.73-4.35,18.39-10.68,27.72-15.78A71.17,71.17,0,0,1,527.43,333.54Z"/><path class="cls-11" d="M502.77,352.2c-7.48,5.62-17.15,10.78-24.56,16.54-2.53,2-44.68,25.66-45.27,28.81,6.91,1.16,50.93-29.64,57.23-32.71s11.88-7.41,17.42-11.71c1.41-1.09,7.38-4.39,3.34-5.61C508.65,346.83,504.45,351.08,502.77,352.2Z"/><polygon class="cls-8" points="461.77 91.64 428.49 74.21 382.54 81.34 373.03 123.34 396.7 122.43 403.31 107 403.31 122.17 414.23 121.75 420.57 97.19 424.53 123.34 463.35 122.54 461.77 91.64"/><rect class="cls-14" x="382.73" y="177.79" width="71.61" height="86.42"/><path class="cls-10" d="M348.74,328.1c1.64,2.45,3.57,4.85,6.21,6.18a12.15,12.15,0,0,0,10.68-.29,18.84,18.84,0,0,0,7.7-7.72c3.62-6.39,4.37-14,3.92-21.36s-2-14.54-2.71-21.84c-.5-5.31-.55-10.66-.59-16a5.32,5.32,0,0,1,.68-3.24c.8-1.09,2.26-1.39,3.56-1.78,7.3-2.17,12.15-9,15.62-15.78,2.32-4.53,4.34-9.47,3.89-14.54s-4.09-10.16-9.15-10.68c-4.17-.43-8,2.22-11,5.14a47.28,47.28,0,0,0-13.85,27.67c-.66,5.15-.47,10.44-1.87,15.44-3,10.68-12.35,17.22-17,26.82C339.66,306.72,342.49,318.73,348.74,328.1Z"/><path class="cls-10" d="M486.43,287.32a20.19,20.19,0,0,1-11.31,10.87,15.62,15.62,0,0,1-9.83.6,10.92,10.92,0,0,1-7.21-6.44,17.34,17.34,0,0,1-.81-4.84c-.47-7.2-.29-14.62,2.33-21.34,1-2.6,2.37-5.06,3.16-7.72A38.85,38.85,0,0,0,464,249l.86-19.64a12.71,12.71,0,0,0-.29-4.26c-.86-2.84-3.51-4.69-5.95-6.38-5.89-4.1-11.7-8.87-14.55-15.45a10.87,10.87,0,0,1-1-6.4c.81-3.9,4.74-6.42,8.63-7.27a19.29,19.29,0,0,1,23,14.73c.06.27.12.55.16.82.39,2.22.38,4.48.61,6.72.48,4.75,2,9.33,2.93,14,2.32,11.52,1.12,23.43,3.41,35C483.65,270.49,490.9,276.78,486.43,287.32Z"/><path class="cls-7" d="M43.32,407.44l-1.65,0a381.25,381.25,0,0,1,5.85-54.56c7.12-38.59,18.95-63.93,35.18-75.32l.94,1.34C45.74,305.49,43.34,406.42,43.32,407.44Z"/><path class="cls-7" d="M63.9,407.05l-1.65,0c0-1.82,1.06-44.78,18-56.66l.94,1.35C64.94,363.1,63.9,406.61,63.9,407.05Z"/><circle class="cls-7" cx="93.01" cy="270.79" r="8.23"/><circle class="cls-7" cx="88.93" cy="341.58" r="8.23"/><path class="cls-7" d="M60.06,284a36.51,36.51,0,0,1-2.49,18.72A33.35,33.35,0,0,1,52,266.9,36.57,36.57,0,0,1,60.06,284Z"/><path class="cls-7" d="M87,308a36.51,36.51,0,0,1-18.86.82,36.58,36.58,0,0,1,15.39-10.94,36.62,36.62,0,0,1,18.87-.81A36.58,36.58,0,0,1,87,308Z"/><path class="cls-7" d="M87.27,370.64a25.57,25.57,0,0,1-13.22.57,23.34,23.34,0,0,1,24-8.23A25.78,25.78,0,0,1,87.27,370.64Z"/></g></g></svg>