<svg xmlns="http://www.w3.org/2000/svg" xmlns:xlink="http://www.w3.org/1999/xlink" viewBox="0 0 1661 705.46"><defs><style>.cls-1{fill:#4895ef;}.cls-2{fill:#4361ee;}.cls-3{fill:#3f37c9;}.cls-4{fill:#fff;stroke:#000;stroke-miterlimit:10;stroke-width:0.5px;}.cls-5{fill:url(#Sfumatura_senza_nome_37);}.cls-6{fill:url(#Sfumatura_senza_nome_32);}.cls-7{fill:#f72585;}.cls-8{fill:#fbbebe;}.cls-9{fill:#4cc9f0;}.cls-10{opacity:0.4;isolation:isolate;}.cls-11{fill:#e2a60a;}.cls-12{fill:#f2f2f2;}</style><linearGradient id="Sfumatura_senza_nome_37" x1="1537.47" y1="606.18" x2="1537.47" y2="175.07" gradientUnits="userSpaceOnUse"><stop offset="0.36" stop-color="#3f37c9"/><stop offset="0.79" stop-color="#4361ee"/></linearGradient><linearGradient id="Sfumatura_senza_nome_32" x1="1367.4" y1="640.42" x2="1367.4" y2="418.69" gradientUnits="userSpaceOnUse"><stop offset="0.68" stop-color="#3f37c9"/><stop offset="1" stop-color="#4361ee"/></linearGradient></defs><title>index-svg</title><g id="Livello_2" data-name="Livello 2"><g id="Livello_1-2" data-name="Livello 1"><path class="cls-1" d="M791.67,0c0,314.46-261.26,569.37-583.54,569.37A595.19,595.19,0,0,1,0,532.09V0Z"/><path class="cls-2" d="M629.57,0c0,250.07-207.76,452.79-464.05,452.79A473.58,473.58,0,0,1,0,423.15V0Z"/><path class="cls-3" d="M531.38,0c0,211.07-175.36,382.17-391.68,382.17A399.59,399.59,0,0,1,0,357.15V0Z"/><path class="cls-4" d="M126.41,308l-2-15.93L109,290.57l15.06-2.64,2.34-14.76,2.05,15.35,15.34,2.05-15.93,2.05Z"/><path class="cls-4" d="M170.73,212l-3.18-24.66-23.75-2.26L167.1,181l3.63-22.84,3.17,23.74,23.75,3.18L173,188.22Z"/><path class="cls-4" d="M319.76,230.18l-2.66-20.67-19.91-1.9,19.53-3.41q1.51-9.58,3-19.15L322.42,205l19.91,2.65-20.67,2.66Z"/><path class="cls-4" d="M395.83,102.35,391,64.94,355,61.5l35.34-6.19q2.76-17.33,5.5-34.65l4.82,36,36,4.81-37.41,4.81Z"/><rect class="cls-3" x="1533.51" y="594.59" width="8.62" height="92.71"/><path class="cls-5" d="M1621.68,390.24c.54,119-83.21,215.94-83.21,215.94s-84.65-96.12-85.2-215.17,83.21-215.94,83.21-215.94S1621.13,271.19,1621.68,390.24Z"/><rect class="cls-3" x="1365.36" y="626.12" width="4.43" height="56.02"/><path class="cls-6" d="M1410.71,529.35c.28,61.23-42.8,111.07-42.8,111.07s-43.54-49.44-43.82-110.67,42.8-111.06,42.8-111.06S1410.42,468.12,1410.71,529.35Z"/><ellipse class="cls-3" cx="1457.17" cy="687.05" rx="120.11" ry="18.41"/><path class="cls-7" d="M1467.08,258c-10.18-17.2-30.31-18-30.31-18s-19.62-2.5-32.2,23.68c-11.73,24.41-27.92,48-2.61,53.69l4.57-14.23,2.84,15.29a97.78,97.78,0,0,0,10.83.18c27.1-.87,52.92.26,52.09-9.47C1471.18,296.18,1476.87,274.51,1467.08,258Z"/><path class="cls-8" d="M1430.43,290.35s13.15,18.41,5.26,33.31,18.41,30.69,18.41,30.69l19.29-42.09s-22.79-14.9-16.66-28.93Z"/><circle class="cls-8" cx="1439.2" cy="275.44" r="22.79"/><path class="cls-8" d="M1360.32,301.79l19-24.57s6.71-25.76,16.43-24.46-3.84,30.9-3.84,30.9L1373,310.86Z"/><polygon class="cls-8" points="1456.73 628.75 1462.87 661.18 1476.02 664.69 1472.51 626.12 1456.73 628.75"/><polygon class="cls-8" points="1589.11 593.68 1612.78 626.12 1622.42 630.5 1630.32 617.35 1606.64 586.67 1589.11 593.68"/><path class="cls-1" d="M1451.47,340.32l-14.62-19.25s-28.34,5.22-31,7.85,7,50.85,7,50.85,1.75,13.15,9.64,20.16l7.89,5.26L1495.31,392l2.44-28.86a75.79,75.79,0,0,0-20-57.93h0l-11.29,1.54Z"/><path class="cls-1" d="M1409.39,330.68l-4.38-1.76-20.17-1.75s-7-1.76-5.26-5.26,3.51-4.39,0-5.26-4.38-1.76-3.5-4.39,6.13-7.89,6.13-7.89l-14.9-12.27s-.81.57-2.11,1.63c-7.4,6-30.81,27.6-13.67,49.22,20.16,25.42,43.83,40.33,63.12,35.07Z"/><path class="cls-9" d="M1428.68,400.81v12.27s-7.89,14.91-5.26,28.93,3.51,21,3.51,21a119.59,119.59,0,0,0,6.13,35.07c6.14,17.53-14,132.38,11.4,134.13s39.45,3.51,47.34-5.26-13.15-159.55-13.15-159.55,71.89,149.91,86.79,143.77,52.6-20.16,48.22-28.05-114.85-183.23-114.85-183.23l-3.5-7.89Z"/><path class="cls-2" d="M1470.76,655.05s-14-.88-14,3.5-7,19.29-7,19.29-5.26,17.53,8.77,15.78,22.79-17.53,22.79-17.53l-3.51-16.66Z"/><path class="cls-2" d="M1617.16,624.36s-12.27-7.89-11.39-2.63,1.75,19.29,7.89,20.17,24.55,6.13,25.42,7.89,21.92,8.76,21.92-2.63S1647.85,627,1647.85,627L1633,615.6s-9.65-.88-11.4,5.26S1617.16,624.36,1617.16,624.36Z"/><circle class="cls-7" cx="1439.23" cy="240.06" r="14.56"/><path class="cls-7" d="M1423.14,236.23a14.55,14.55,0,0,1,13-14.47,13.08,13.08,0,0,0-1.53-.09,14.56,14.56,0,0,0,0,29.12h0a13.08,13.08,0,0,0,1.53-.09A14.55,14.55,0,0,1,1423.14,236.23Z"/><polygon class="cls-7" points="1462.58 256.31 1442.69 245.89 1415.22 250.16 1409.54 275.25 1423.69 274.71 1427.64 265.49 1427.64 274.56 1434.16 274.31 1437.95 259.63 1440.32 275.25 1463.53 274.78 1462.58 256.31"/><path class="cls-8" d="M1461.39,402.84l-30.68.83s-26.17,5.09-24.7-5.47,27-6.87,27-6.87l28-4.26Z"/><path class="cls-1" d="M1485.66,303.77a6.54,6.54,0,0,1,7.22,4.49c6,18.92,24.5,82.25,6.12,90.93-21.65,10.23-37.45,9.79-37.45,9.79l-8.45-20.82,7.69-7.23,8.22-52.84,3.94-22.4Z"/><polygon class="cls-10" points="1479.96 339 1476.46 374.07 1445.77 387.22 1479.96 379.33 1479.96 339"/><path class="cls-3" d="M1342.49,236.3h0a33.41,33.41,0,0,1,19,14.77l2.21,3.68.12.15,40.49,13.25a3,3,0,0,1,1.93,3.7l-3.54,11.54a3,3,0,0,1-3.73,2h0l-40.53-12.71h0l-4.16,1.42a36.71,36.71,0,0,1-23.61.06h0Z"/><rect class="cls-3" x="1296.92" y="229.84" width="42.78" height="39.76" rx="2.92" ry="2.92" transform="translate(2506.82 872.38) rotate(-163.08)"/><rect class="cls-3" x="1268" y="218.73" width="49.97" height="46.45" rx="2.92" ry="2.92" transform="matrix(-0.96, -0.29, 0.29, -0.96, 2459.54, 849.81)"/><rect class="cls-3" x="1257.27" y="207.77" width="22.48" height="53.48" rx="2.92" ry="2.92" transform="translate(2413.82 828.12) rotate(-163.08)"/><ellipse class="cls-11" cx="1258.63" cy="231.5" rx="26" ry="11.76" transform="translate(650.2 1357.36) rotate(-72.03)"/><path class="cls-10" d="M1268.17,234.64c4.26-13.16,3.1-25.43-2.51-28.09a4.88,4.88,0,0,1,1,.22c6.18,2,7.6,14.7,3.17,28.36s-13,23.11-19.21,21.11c-.22-.08-.44-.17-.65-.27C1256,256.75,1264,247.59,1268.17,234.64Z"/><polygon class="cls-12" points="1267.53 223.54 1265.46 223.54 1265.46 221.47 1265.05 221.47 1265.05 223.54 1262.97 223.54 1262.97 223.95 1265.05 223.95 1265.05 226.03 1265.46 226.03 1265.46 223.95 1267.53 223.95 1267.53 223.54"/></g></g></svg>