<svg xmlns="http://www.w3.org/2000/svg" viewBox="0 0 67.81 87.26"><defs><style>.cls-1{fill:none;stroke:#fff;stroke-width:2px;}.cls-1,.cls-2,.cls-3{stroke-miterlimit:10;}.cls-2,.cls-3{fill:#fff;stroke:#3f37c9;}.cls-2{stroke-width:0.5px;}.cls-3{stroke-width:0.75px;}</style></defs><title>Risorsa 1</title><g id="Livello_2" data-name="Livello 2"><g id="Livello_1-2" data-name="Livello 1"><path class="cls-1" d="M62.81,36.9C64,24.37,60,13.46,51.27,8.82,37.85,1.66,18.35,12,7.71,32s-8.39,41.93,5,49.09c4.7,2.5,10.14,2.86,15.69,1.4"/><circle class="cls-2" cx="59.49" cy="17.72" r="5.85"/><path class="cls-3" d="M19.23,49.94H9.67V.38h17a21.62,21.62,0,0,1,7.32,1.17A16.68,16.68,0,0,1,39.52,4.8a14.43,14.43,0,0,1,3.52,5,16.45,16.45,0,0,1,1.25,6.5A15.11,15.11,0,0,1,43,22.5a13.88,13.88,0,0,1-3.52,4.87,16.48,16.48,0,0,1-5.58,3.23,21.87,21.87,0,0,1-7.32,1.16H19.23ZM26.62,24a9.3,9.3,0,0,0,3.54-.61,7.35,7.35,0,0,0,2.52-1.67,6.93,6.93,0,0,0,1.48-2.44,8.36,8.36,0,0,0,.49-2.87,10.28,10.28,0,0,0-.49-3.24,7.52,7.52,0,0,0-1.48-2.62,7.17,7.17,0,0,0-2.52-1.77,8.92,8.92,0,0,0-3.54-.64H19.23V24Z"/><path class="cls-3" d="M29.15,86.44A21.66,21.66,0,0,1,27,85.73l1.79-7.08q.59,0,1.47.18t1.44.18a3,3,0,0,0,2-.52,9,9,0,0,0,1.61-1.37c.45-.51.79-.89,1-1.14a11.62,11.62,0,0,0,.8-1.09l2.53-3.84L27.3,34.53l10.3.92L44.08,57.7l.69,3.82L46.48,58,56.79,37.17l10.41.94L44.81,78.62A27.77,27.77,0,0,1,43,81.49a14,14,0,0,1-2.7,2.8,12.44,12.44,0,0,1-3.75,2,11.85,11.85,0,0,1-5,.51A14.67,14.67,0,0,1,29.15,86.44Z"/></g></g></svg>