<svg xmlns="http://www.w3.org/2000/svg" viewBox="0 0 483.24 447.23"><defs><style>.cls-1{fill:#480ca8;opacity:0.5;}.cls-2{fill:#f72585;}.cls-3{fill:#ffb8b8;}.cls-4{fill:#4895ef;}.cls-5{fill:#4361ee;}.cls-6{opacity:0.2;isolation:isolate;}.cls-7{fill:#e76f51;}</style></defs><title>user-profile</title><g id="Livello_2" data-name="Livello 2"><g id="Livello_1-2" data-name="Livello 1"><path class="cls-1" d="M468.34,241.08H66a14.92,14.92,0,0,1-14.9-14.91V14.9A14.92,14.92,0,0,1,66,0H468.34a14.92,14.92,0,0,1,14.9,14.9V226.17A14.92,14.92,0,0,1,468.34,241.08ZM66,1.75A13.17,13.17,0,0,0,52.81,14.9V226.17A13.16,13.16,0,0,0,66,239.32H468.34a13.16,13.16,0,0,0,13.15-13.15V14.9A13.17,13.17,0,0,0,468.34,1.75Z"/><path class="cls-1" d="M202.72,185H99.27a14.92,14.92,0,0,1-14.9-14.9V66.62a14.92,14.92,0,0,1,14.9-14.9H202.72a14.92,14.92,0,0,1,14.9,14.9V170.07A14.92,14.92,0,0,1,202.72,185ZM99.27,53.48A13.16,13.16,0,0,0,86.12,66.62V170.07a13.17,13.17,0,0,0,13.15,13.15H202.72a13.17,13.17,0,0,0,13.15-13.15V66.62a13.16,13.16,0,0,0-13.15-13.14Z"/><path class="cls-1" d="M457.81,107.83h-199a7,7,0,0,1,0-14h199a7,7,0,0,1,0,14Z"/><path class="cls-1" d="M357,78H258.81a7,7,0,0,1,0-14H357a7,7,0,1,1,0,14Z"/><path class="cls-1" d="M457.81,166.56h-199a7,7,0,1,1,0-14h199a7,7,0,0,1,0,14Z"/><path class="cls-1" d="M357,136.76H258.81a7,7,0,0,1,0-14H357a7,7,0,1,1,0,14Z"/><path class="cls-1" d="M212.85,180.63a.85.85,0,0,1-.62-.26L89.84,56.33a.88.88,0,0,1,0-1.24.87.87,0,0,1,1.24,0l122.4,124a.88.88,0,0,1-.63,1.49Z"/><path class="cls-1" d="M89.13,180.63a.87.87,0,0,1-.87-.87.89.89,0,0,1,.25-.62L210.9,55.1a.88.88,0,1,1,1.25,1.23h0l-122.39,124A.88.88,0,0,1,89.13,180.63Z"/><path class="cls-2" d="M451.68,215.22h-56.1a13.59,13.59,0,1,1,0-27.18h56.1a13.59,13.59,0,0,1,0,27.18Z"/><polygon class="cls-3" points="84.22 437.25 94.97 437.24 100.08 395.79 84.22 395.79 84.22 437.25"/><path class="cls-4" d="M115.7,447.22H81.92V434.17h20.73a13.06,13.06,0,0,1,13,13.05Z"/><polygon class="cls-3" points="6.24 425.07 16.02 429.54 37.89 393.95 23.46 387.36 6.24 425.07"/><path class="cls-4" d="M30.72,447.23,0,433.19H0l5.42-11.87h0l18.86,8.61a13.06,13.06,0,0,1,6.44,17.3Z"/><path class="cls-3" d="M37.54,297.47a8.84,8.84,0,0,1-.7-13.5L24.2,255.31,40.25,258l9.54,26.8a8.86,8.86,0,0,1-12.25,12.64Z"/><path class="cls-5" d="M81,422.82,70.68,332.77a3.07,3.07,0,0,0-6.06-.28l-5.11,24.63a3.83,3.83,0,0,1-.35,1L29.24,416.3a4,4,0,0,1-4.88,1.9L14,414.37a4,4,0,0,1-2.34-5.07l0-.05L36,346.08a3.11,3.11,0,0,0,.21-1l1.24-66A4,4,0,0,1,41,275.23l64.64-6.31a4,4,0,0,1,4.31,3.55,5,5,0,0,1,0,.67L99.11,422.66a4,4,0,0,1-3.93,3.65H84.91A3.94,3.94,0,0,1,81,422.82Z"/><circle class="cls-3" cx="79.8" cy="134.7" r="21.53"/><path class="cls-4" d="M98.45,168c-.58-.28-1.17-.55-1.75-.81h0a43.59,43.59,0,0,0-43.85,4.73c-11.47,8.54-17,21.4-15.17,35.28,3.86,29.26-.55,68.95-1,72.9,35.39,16.28,66.45-4.19,69.2-6.09Z"/><path class="cls-4" d="M35.7,279.71a3.93,3.93,0,0,1-3-2.27l-18.07-40a10.07,10.07,0,0,1,.61-9.41l22.19-36a7.28,7.28,0,0,1,13.48,1.72,7.37,7.37,0,0,1-.49,4.87L34,233.05l10.79,36.51a3.93,3.93,0,0,1-.88,3.78l-4.71,5.14a3.89,3.89,0,0,1-2.9,1.28A3.35,3.35,0,0,1,35.7,279.71Z"/><path class="cls-6" d="M86,271.35l-3.34-66.8.86-.12,15,70.66h-8.6A3.92,3.92,0,0,1,86,271.35Z"/><path class="cls-3" d="M97.9,292.66a8.82,8.82,0,0,1,.85-12.44,10.06,10.06,0,0,1,1.26-.91l-6.4-30.66,15.13,6,3.76,28.2a8.86,8.86,0,0,1-14.6,9.82Z"/><path class="cls-4" d="M94.87,271.82,82.22,187.49v-.08l2.45-11.24a11.85,11.85,0,0,1,23.43,2l3.8,91.85a4,4,0,0,1-3.51,4.09l-9.17,1-.45,0A3.94,3.94,0,0,1,94.87,271.82Z"/><path class="cls-7" d="M71,154.25A15.49,15.49,0,0,1,57,145.3h0c-2-4.22-3.11-7.58-3.3-10-.52-6.48,3.15-16.66,8-22.23,5.32-6.12,13.75-7,21.89-7.8,2.22-.22,4.52-.46,6.7-.79,1.87-.29,4.19-.66,6.17.08A4.45,4.45,0,0,1,99.05,107a1.55,1.55,0,0,0,.87.87,1.32,1.32,0,0,0,1,0,2.37,2.37,0,0,1,2.14,0,2.06,2.06,0,0,1,1.11,1.51,2.07,2.07,0,0,0,.2.64,2.53,2.53,0,0,0,1.65,1.24,2.22,2.22,0,0,1,1.72,2.38c-.13,1.11-.19,2.3-.24,3.46-.2,4.34-.41,8.83-4.78,8.76a12.7,12.7,0,0,1-3.29-.58c-1.58-.44-2.83-.79-4.51.26-2.59,1.61-3,5-3.38,8l-.07.52c-.43,3.4-2.23,7.5-5.87,7.84a8.35,8.35,0,0,1-3.38-.59,6.07,6.07,0,0,0-3.52-.42c-2,.57-3,3-2.87,5a19.36,19.36,0,0,0,.32,2.51,13.2,13.2,0,0,1,.28,4c-.1.82-1,1.35-3,1.69A14.91,14.91,0,0,1,71,154.25Z"/></g></g></svg>